<svg width="24" height="24" viewBox="0 0 24 24" fill="none" xmlns="http://www.w3.org/2000/svg">
<path opacity="0.3" fill-rule="evenodd" clip-rule="evenodd" d="M7.25619 18.9293L5.97889 20.4683C3.47693 18.3917 2 15.3155 2 12.0001C2 8.68933 3.47282 5.61687 5.96885 3.54028L7.24797 5.07777C5.20393 6.77831 4 9.28985 4 12.0001C4 14.7141 5.2073 17.2288 7.25619 18.9293ZM16.7438 18.9293L18.0211 20.4683C20.5231 18.3917 22 15.3155 22 12.0001C22 8.68933 20.5272 5.61687 18.0311 3.54028L16.752 5.07777C18.7961 6.77831 20 9.28985 20 12.0001C20 14.7141 18.7927 17.2288 16.7438 18.9293ZM14.1785 15.86L15.4509 17.4031C17.0529 16.0821 18 14.1175 18 12.0001C18 9.88969 17.0591 7.93084 15.4661 6.60974L14.1894 8.14921C15.329 9.09429 16 10.4913 16 12.0001C16 13.5139 15.3245 14.915 14.1785 15.86ZM8.5491 17.4031L9.8215 15.86C8.6755 14.915 8 13.5139 8 12.0001C8 10.4913 8.67104 9.09429 9.81062 8.14921L8.53389 6.60974C6.94091 7.93084 6 9.88969 6 12.0001C6 14.1175 6.94714 16.0821 8.5491 17.4031Z" fill="#99EFD0"/>
<path fill-rule="evenodd" clip-rule="evenodd" d="M12 14C13.1046 14 14 13.1046 14 12C14 10.8954 13.1046 10 12 10C10.8954 10 10 10.8954 10 12C10 13.1046 10.8954 14 12 14Z" fill="#99EFD0"/>
</svg>
